<svg version="1.2" baseProfile="tiny-ps" xmlns="http://www.w3.org/2000/svg" viewBox="0 0 512 512" width="512" height="512">
	<title>match-svg</title>
	<style>
		tspan { white-space:pre }
		.shp0 { fill: #f6f6f6 } 
	</style>
	<path id="Layer" fill-rule="evenodd" class="shp0" d="M24 192L384 192L384 240C384 261.46 409.96 271.98 424.97 256.97L504.97 176.97C514.34 167.6 514.34 152.4 504.97 143.03L424.97 63.03C409.9 47.96 384 58.63 384 80L384 128L24 128C10.74 128 0 138.75 0 152L0 168C0 181.25 10.74 192 24 192ZM488 320L128 320L128 272C128 250.69 102.14 239.92 87.03 255.03L7.03 335.03C-2.34 344.4 -2.34 359.6 7.03 368.97L87.03 448.97C102.06 464 128 453.44 128 432L128 384L488 384C501.25 384 512 373.25 512 360L512 344C512 330.75 501.25 320 488 320Z" />
</svg>