<svg version="1.2" baseProfile="tiny-ps" xmlns="http://www.w3.org/2000/svg" viewBox="0 0 576 512" width="576" height="512">
	<title>reveal-svg</title>
	<style>
		tspan { white-space:pre }
		.shp0 { fill: #fafafa } 
	</style>
	<path id="Layer" fill-rule="evenodd" class="shp0" d="M572.52 241.4C573.66 243.65 574.53 246.04 575.12 248.49C575.7 250.95 576 253.47 576 256C576 258.52 575.7 261.04 575.12 263.5C574.53 265.95 573.66 268.34 572.52 270.59C518.32 376.36 410.93 448 288 448C165.07 448 57.71 376.41 3.48 270.6C2.34 268.35 1.47 265.96 0.88 263.51C0.3 261.05 0 258.53 0 256C0 253.48 0.3 250.96 0.88 248.5C1.47 246.05 2.34 243.66 3.48 241.41C57.68 135.64 165.07 64 288 64C410.93 64 518.29 135.59 572.52 241.4ZM288 400C306.91 400.01 325.64 396.29 343.12 389.06C360.59 381.82 376.47 371.22 389.84 357.84C403.22 344.47 413.82 328.59 421.06 311.12C428.29 293.64 432.01 274.91 432 256C432 197.76 396.92 145.25 343.11 122.96C289.3 100.67 227.36 112.99 186.18 154.18C144.99 195.36 132.67 257.3 154.96 311.11C177.25 364.92 229.76 400 288 400ZM378.89 224.91C392.14 263.8 379.1 306.8 346.5 331.79C313.89 356.79 268.98 358.21 234.87 335.32C200.75 312.43 185.03 270.34 195.79 230.69C205.01 237.47 216.35 240.73 227.76 239.86C239.17 239 249.89 234.08 257.98 225.98C266.08 217.89 271 207.17 271.86 195.76C272.73 184.35 269.47 173.01 262.69 163.79C264.74 163.19 266.82 162.66 268.91 162.2C271 161.75 273.1 161.36 275.22 161.04C277.33 160.72 279.46 160.48 281.59 160.31C283.72 160.13 285.86 160.03 288 160C329.08 159.9 365.65 186.02 378.89 224.91Z" />
</svg>